PathFileType  4	(X/Y/Z) C:\Users\antoi\Documents\MyRepositories\mobilecap\ResultsAnalysis
DataRate	CameraRate	NumFrames	NumMarkers	Units	OrigDataRate	OrigDataStartFrame	OrigNumFrames
100.0	100.0	6	51	mm	100.0	87	138
Frame#	Time	r_knee			r_shank_antsup			r_ankle			r_calc			r_5meta			r_toe			L_knee			L_shank_antsup			L_ankle			L_calc			L_5meta			L_toe			r_sh2			r_sh3			r_sh4			L_sh2			L_sh3			r_thigh1			r_thigh2			r_thigh3			r_thigh4			r_thigh5			L_thigh1			L_thigh2			L_thigh3			L_thigh4			r.ASIS			r.PSIS			L.ASIS			L.PSIS			C7			R_Shoulder			L_Shoulder			R_Sternum			L_Sternum			R_humerus			R_elbow_med			R_elbow_lat			R_forearm			R_wrist_radius			R_wrist_ulna			L_humerus			L_elbow_med			L_elbow_lat			L_forearm			L_wrist_radius			L_wrist_ulna			R_HJC			L_HJC			R_HJC_reg			L_HJC_reg			
		X1	Y1	Z1	X2	Y2	Z2	X3	Y3	Z3	X4	Y4	Z4	X5	Y5	Z5	X6	Y6	Z6	X7	Y7	Z7	X8	Y8	Z8	X9	Y9	Z9	X10	Y10	Z10	X11	Y11	Z11	X12	Y12	Z12	X13	Y13	Z13	X14	Y14	Z14	X15	Y15	Z15	X16	Y16	Z16	X17	Y17	Z17	X18	Y18	Z18	X19	Y19	Z19	X20	Y20	Z20	X21	Y21	Z21	X22	Y22	Z22	X23	Y23	Z23	X24	Y24	Z24	X25	Y25	Z25	X26	Y26	Z26	X27	Y27	Z27	X28	Y28	Z28	X29	Y29	Z29	X30	Y30	Z30	X31	Y31	Z31	X32	Y32	Z32	X33	Y33	Z33	X34	Y34	Z34	X35	Y35	Z35	X36	Y36	Z36	X37	Y37	Z37	X38	Y38	Z38	X39	Y39	Z39	X40	Y40	Z40	X41	Y41	Z41	X42	Y42	Z42	X43	Y43	Z43	X44	Y44	Z44	X45	Y45	Z45	X46	Y46	Z46	X47	Y47	Z47	X48	Y48	Z48	X49	Y49	Z49	X50	Y50	Z50	X51	Y51	Z51	

87	0.86000000	959.76378	467.17822	-125.99111	925.92915	352.21500	-144.78895	685.69139	219.48442	-163.58067	624.74500	223.85841	-215.41489	729.13956	95.81843	-141.42055	770.18647	88.44431	-184.09598	873.16356	468.34291	-410.06243	902.02242	370.71258	-348.87854	812.74626	85.64367	-356.87358	759.88255	50.20451	-307.93902	929.78934	37.02266	-361.45657	965.17936	57.03270	-304.98435	839.45755	281.22757	-160.96937	883.24009	391.88806	-94.01624	789.71771	334.79670	-118.35018	868.78212	383.14967	-429.73481	856.82971	262.93899	-428.09843	938.59796	774.96226	-119.26062	986.42645	675.47818	-112.34573	945.54042	632.57613	-77.20334	841.94644	731.24498	-90.03149	888.42481	626.62584	-85.06172	938.98613	762.23835	-431.41400	949.25692	625.46309	-417.66047	838.29264	756.12071	-477.98652	846.22127	615.45160	-454.58488	932.59893	921.22606	-147.73444	755.95004	973.22381	-222.74526	953.45467	936.27182	-389.16244	761.54209	984.11622	-339.87190	764.28017	1426.85000	-268.00600	817.03460	1394.72082	-114.55490	829.83952	1406.08701	-424.79896	894.18444	1383.33919	-244.36506	896.93541	1381.79621	-288.43248	835.54712	1265.50836	-51.85945	770.02354	1069.14523	-114.30030	793.20992	1074.30496	-41.77420	842.13539	957.19466	-24.58619	867.01777	856.12093	-27.58823	833.84391	849.68075	-10.80608	858.71742	1259.30722	-490.52172	805.08636	1062.76672	-440.44676	816.74686	1074.28464	-511.47287	876.16860	996.35930	-538.90927	931.35513	880.26451	-534.43478	904.83903	866.54323	-549.72917	842.73201	854.21115	-183.58825	861.73855	863.50097	-371.77430	864.57308	853.49173	-191.29135	872.18148	868.31684	-350.66990	
88	0.87000000	981.03510	471.32649	-126.46055	952.00075	355.00872	-145.03841	718.45828	210.77421	-162.25967	656.58059	210.91042	-213.86159	769.35749	90.63079	-138.86575	811.13526	85.62117	-181.40851	876.45820	468.21215	-410.51190	904.55464	370.43496	-349.22804	812.76705	85.84210	-356.63553	760.28874	50.00067	-307.74274	929.79905	37.03990	-361.41054	965.27571	56.81822	-304.92465	868.63852	279.68101	-160.85671	907.79110	392.43964	-93.84275	817.21794	330.82243	-117.47288	871.12375	382.89897	-430.01456	858.31847	262.85443	-428.15238	951.79369	778.77917	-118.90415	1002.02152	680.58199	-112.74859	962.48978	636.64760	-76.87525	856.34089	732.33370	-89.28186	905.61900	629.26878	-84.15396	947.42282	760.97284	-430.88795	955.35522	624.03922	-417.45378	846.63131	756.77797	-477.99744	852.17250	615.80730	-454.64740	943.43238	922.72646	-147.96157	766.53304	973.86756	-222.64861	963.91435	935.81948	-389.13690	772.15301	984.27356	-339.83421	776.36371	1427.62832	-268.05246	828.37952	1395.15418	-114.32638	843.24517	1407.03297	-424.17084	906.03685	1383.50895	-243.70784	909.17641	1382.11063	-287.71814	844.41255	1265.75603	-51.35573	776.75115	1070.48456	-115.02455	798.46588	1075.33321	-41.93776	845.08022	957.36493	-23.63147	867.92194	855.64627	-26.16036	834.78149	849.87154	-10.03117	874.09260	1261.03143	-489.97944	821.73209	1063.46520	-442.42409	834.99275	1075.60645	-513.02999	896.74269	999.05117	-539.15130	954.42283	884.12640	-533.71325	928.38909	870.05476	-549.72970	853.54129	855.31800	-182.88875	872.18329	863.28207	-371.17478	875.42893	854.25264	-191.22493	883.06287	868.38997	-350.40400	
89	0.88000000	1001.61870	475.37547	-127.01175	977.83365	357.69935	-145.23186	752.06228	201.31552	-161.00794	689.58111	197.18217	-212.38403	810.28525	85.43218	-136.28151	852.64065	82.76969	-178.68273	880.04071	468.03241	-410.83549	907.17612	370.08306	-349.43329	812.77242	86.05759	-356.43446	760.66314	49.89580	-307.58442	929.83879	37.07036	-361.36632	965.36712	56.60114	-304.88027	898.17464	277.98308	-160.60220	932.04379	392.65189	-93.73141	844.85059	326.21544	-116.72937	873.79346	382.66301	-430.18746	860.04874	262.74294	-428.14294	965.17526	782.42071	-118.56330	1017.36560	685.33144	-113.25448	979.11436	640.66074	-76.65337	870.69692	733.41786	-88.42419	922.51689	631.92872	-83.28683	955.80372	759.63941	-430.36208	961.56221	622.60876	-417.22695	854.97640	757.25206	-477.96885	858.30758	616.09492	-454.73309	954.20550	923.93958	-148.14677	777.11342	974.23481	-222.43353	974.31950	935.20954	-389.02708	782.69511	984.28992	-339.67442	788.41196	1428.24024	-268.02110	839.76067	1395.41175	-114.08151	856.59609	1407.80479	-423.51123	917.88395	1383.53257	-243.07289	921.43869	1382.29978	-287.01086	853.36429	1265.88482	-50.84715	783.28747	1071.75327	-115.47876	803.67076	1076.34294	-41.92305	848.08455	957.57260	-22.61655	869.15951	855.27971	-24.69063	835.94299	850.12355	-9.27490	889.42651	1262.64476	-489.43942	838.54239	1064.05925	-444.24173	853.14364	1076.88655	-514.46272	917.13399	1001.70156	-539.32923	977.30313	887.82701	-533.01079	951.72724	873.61326	-549.64894	864.31040	856.15359	-182.16539	882.56785	862.91374	-370.53967	886.30017	854.68384	-191.14665	893.86841	868.31696	-350.09660	
90	0.89000000	1021.47112	479.22848	-127.60689	1003.32833	360.32759	-145.34856	786.49608	191.27047	-159.89834	723.79364	182.84026	-211.05306	851.84458	80.37640	-133.69945	894.58702	80.04847	-175.95338	883.93824	467.79377	-411.00135	909.93497	369.65590	-349.47944	812.83737	86.32244	-356.25171	760.93388	49.92791	-307.44879	929.91419	37.11169	-361.32184	965.46792	56.38869	-304.84842	928.07275	276.26690	-160.15241	955.91260	392.51823	-93.68997	872.47113	321.14550	-116.12373	876.78543	382.42073	-430.23541	862.02723	262.59058	-428.05879	978.66026	785.79982	-118.24915	1032.47299	689.66563	-113.87189	995.42343	644.56662	-76.52919	884.97792	734.47575	-87.45356	939.14506	634.58029	-82.50512	964.16295	758.27029	-429.86313	967.88319	621.17752	-416.97878	863.32124	757.54469	-477.86839	864.60469	616.29634	-454.79736	964.92279	924.84303	-148.28287	787.70754	974.37027	-222.08973	984.67279	934.46265	-388.85770	793.19277	984.20034	-339.37953	800.42591	1428.66572	-267.91151	851.18040	1395.48539	-113.82153	869.87815	1408.39983	-422.84234	929.73464	1383.41689	-242.45328	933.72001	1382.35670	-286.30856	862.42013	1265.87591	-50.34184	789.68532	1072.93475	-115.67793	808.89505	1077.31281	-41.75133	851.20268	957.79497	-21.56898	870.81582	854.98913	-23.15087	837.33550	850.45994	-8.52825	904.68155	1264.11924	-488.90072	855.50929	1064.52946	-445.88766	871.18017	1078.08727	-515.76290	937.30552	1004.28288	-539.45348	999.98782	891.37237	-532.32819	974.80963	877.17959	-549.49064	875.03320	856.72461	-181.43044	892.88031	862.42659	-369.88222	897.15644	854.81006	-191.05335	904.58022	868.11142	-349.76729	
91	0.90000000	1040.53335	482.77779	-128.20800	1028.33308	362.90057	-145.37917	821.72696	180.82007	-158.98402	759.25599	168.06616	-209.94391	893.94867	75.61563	-131.14889	936.87951	77.63731	-173.24414	888.13131	467.49260	-411.00387	912.85932	369.14866	-349.38635	813.01373	86.65211	-356.07559	761.05047	50.10881	-307.31679	930.02962	37.15815	-361.27532	965.60339	56.19149	-304.82698	958.24492	274.62968	-159.51647	979.28322	392.05364	-93.73022	899.97954	315.75471	-115.64055	880.04263	382.15129	-430.15911	864.19982	262.40214	-427.90391	992.13999	788.82798	-117.98850	1047.33671	693.53426	-114.60705	1011.42067	648.27121	-76.47985	899.14714	735.49264	-86.36902	955.51197	637.17531	-81.82737	972.52774	756.88771	-429.40480	974.31488	619.75184	-416.68853	871.67232	757.67298	-477.67486	871.04020	616.39620	-454.79193	975.63423	925.44298	-148.36239	798.34040	974.32640	-221.62016	994.98846	933.60308	-388.66360	803.66808	984.03043	-338.94890	812.41637	1428.89526	-267.73740	862.63690	1395.37317	-113.54692	883.08902	1408.81826	-422.17963	941.59666	1383.16567	-241.84356	945.99620	1382.26143	-285.61418	871.58193	1265.71853	-49.83979	796.00626	1074.01997	-115.65715	814.20335	1078.22193	-41.45532	854.48174	958.00996	-20.51379	872.90884	854.75525	-21.55087	838.95592	850.91838	-7.78087	919.82637	1265.43049	-488.36388	872.58469	1064.87199	-447.36465	889.08794	1079.17549	-516.93227	957.22408	1006.77338	-539.53165	1022.44205	894.80325	-531.65630	997.59775	880.71279	-549.25536	885.73715	857.05676	-180.69112	903.12874	861.84723	-369.21272	908.00466	854.67500	-190.92757	915.20320	867.78297	-349.42775	
92	0.91000000	1058.73450	485.92086	-128.77628	1052.67864	365.39411	-145.31523	857.69681	170.18597	-158.27963	795.99955	153.06290	-209.12523	936.50066	71.30379	-128.66484	979.43893	75.72509	-170.58065	892.57064	467.13169	-410.85767	915.95013	368.55472	-349.19241	813.31643	87.03782	-355.89727	761.00591	50.41956	-307.17257	930.18578	37.20056	-361.22397	965.79833	56.01808	-304.81268	988.50714	273.12269	-158.76130	1002.02873	391.28618	-93.85459	927.33163	310.13991	-115.25700	883.48609	381.84369	-429.97325	866.48131	262.19878	-427.69187	1005.50872	791.43566	-117.81560	1061.92381	696.89694	-115.45861	1027.10681	651.63580	-76.48648	913.17499	736.46302	-85.17520	971.59466	639.62035	-81.24906	980.91353	755.50085	-428.98948	980.84726	618.33531	-416.32988	880.04770	757.66401	-477.38397	877.59563	616.38858	-454.68153	986.41673	925.76284	-148.38312	809.04118	974.15170	-221.03832	1005.28468	932.64816	-388.48584	814.13834	983.79243	-338.39221	824.40461	1428.93139	-267.52341	874.12301	1395.07839	-113.25647	896.23705	1409.06062	-421.53023	953.47601	1382.77998	-241.23721	958.22276	1381.98377	-284.93296	880.84035	1265.41210	-49.33375	802.31751	1075.00619	-115.46507	819.64828	1079.05444	-41.07174	857.96430	958.19783	-19.47264	875.39443	854.58444	-19.95290	840.80352	851.52664	-7.02156	934.84050	1266.55927	-487.82905	889.68791	1065.09462	-448.68774	906.85918	1080.12393	-517.98164	976.86534	1009.15146	-539.56712	1044.60926	898.17774	-530.97745	1020.06054	884.17194	-548.94241	896.47053	857.18370	-179.95134	913.33190	861.19087	-368.53948	918.87797	854.32665	-190.74695	925.75610	867.33279	-349.08459	
